<svg width="81" height="80" viewBox="0 0 81 80" fill="none" xmlns="http://www.w3.org/2000/svg">
<g clip-path="url(#clip0_279_568)">
<path d="M3.41049 0.234367C2.03549 0.749992 0.707362 2.15624 0.347987 3.46874C0.207362 3.96874 0.176112 13.1406 0.207362 40.3125L0.254237 76.4844L0.613613 77.2187C1.08236 78.1562 2.01986 79.0937 2.95736 79.5625L3.69174 79.9219H40.1761H76.6605L77.3949 79.5625C78.3324 79.0937 79.2699 78.1562 79.7386 77.2187L80.098 76.4844V40V3.51562L79.7386 2.78124C79.2699 1.84374 78.3324 0.906242 77.3949 0.437492L76.6605 0.0781174L40.3324 0.0468674C9.39486 0.0312424 3.91049 0.0468674 3.41049 0.234367ZM75.1761 40V75H40.1761H5.17611V40V4.99999H40.1761H75.1761V40Z" fill="#F5F5F5"/>
<path d="M26.5044 10.375C25.3794 10.875 25.8013 9.53125 17.7231 39.0938C12.4419 58.4688 10.1763 67.0312 10.1763 67.5781C10.1763 69.0625 11.145 70 12.6763 70C13.6294 70 14.3638 69.6562 14.8013 69C14.9419 68.7812 16.1919 64.4375 17.5825 59.3438L20.0981 50.0781H27.6763H35.2544L37.77 59.3438C39.1606 64.4375 40.4106 68.7812 40.5513 69C40.9888 69.6562 41.7231 70 42.6763 70C44.2075 70 45.1763 69.0625 45.1763 67.5781C45.1763 67.0469 42.8169 58.1875 37.6138 39.0938C31.52 16.75 29.9731 11.2969 29.6763 10.9844C28.9575 10.1875 27.52 9.92188 26.5044 10.375ZM30.7231 33.4688C32.3481 39.4219 33.7075 44.4531 33.7388 44.6406L33.8013 45H27.6763H21.5513L21.6138 44.6406C21.8013 43.6719 27.5981 22.6562 27.6763 22.6562C27.7231 22.6562 29.0981 27.5312 30.7231 33.4688Z" fill="#F5F5F5"/>
<path d="M57.7075 35.2344C57.2388 35.3438 56.27 35.7344 55.52 36.0938C53.5981 37.0469 52.1763 38.5 51.2231 40.4844C50.8325 41.2969 50.4419 42.3281 50.3481 42.7812C50.1138 43.9219 50.1138 61.0781 50.3481 62.2188C50.4419 62.6719 50.8325 63.7031 51.2231 64.5156C52.2075 66.5625 53.6138 67.9688 55.6606 68.9531C56.4731 69.3438 57.5044 69.7344 57.9575 69.8281C59.02 70.0469 61.3325 70.0469 62.395 69.8281C64.3638 69.4219 67.1919 67.6719 67.7388 66.5156C68.5825 64.7188 67.4263 62.7812 65.5044 62.7812C64.6606 62.7812 64.2856 62.9375 63.3794 63.6719C62.3481 64.5 61.7544 64.7344 60.4888 64.8125C58.9263 64.8906 57.8013 64.4844 56.7388 63.4375C55.5044 62.1875 55.3013 61.4375 55.2075 57.9219L55.145 55H61.8325C68.2388 55 68.5513 54.9844 69.0513 54.6875C69.3325 54.5156 69.6919 54.1562 69.8638 53.875C70.1606 53.3906 70.1763 53.0781 70.1763 48.4844C70.1763 45.5938 70.1138 43.2656 70.0044 42.7812C69.9106 42.3281 69.52 41.2969 69.1294 40.4844C68.145 38.4375 66.7388 37.0312 64.6919 36.0469C63.8794 35.6562 62.8481 35.2656 62.395 35.1719C61.3013 34.9375 58.7388 34.9688 57.7075 35.2344ZM61.9731 40.4844C63.145 40.9219 64.2544 42.0312 64.7231 43.2344C65.02 44.0312 65.0825 44.5156 65.145 47.0625L65.2075 50H60.1763H55.145L55.2075 47.0625C55.27 44.5156 55.3325 44.0312 55.6294 43.2344C56.5981 40.7656 59.4263 39.5312 61.9731 40.4844Z" fill="#F5F5F5"/>
</g>
</svg>
