<svg width="81" height="80" viewBox="0 0 81 80" fill="none" xmlns="http://www.w3.org/2000/svg">
<path d="M51.7772 29.3162C54.665 29.3162 57.4345 28.169 59.4765 26.1271C61.5185 24.0851 62.6657 21.3156 62.6657 18.4278C62.6657 15.54 61.5185 12.7704 59.4765 10.7285C57.4345 8.68648 54.665 7.53931 51.7772 7.53931L30.0003 7.53931C27.1142 7.53931 24.3463 8.68581 22.3055 10.7266C20.2647 12.7674 19.1182 15.5353 19.1182 18.4214C19.1182 21.3075 20.2647 24.0754 22.3055 26.1162C24.3463 28.157 27.1142 29.3035 30.0003 29.3035C27.1125 29.3035 24.343 30.4506 22.301 32.4926C20.259 34.5346 19.1119 37.3041 19.1119 40.1919C19.1119 43.0797 20.259 45.8492 22.301 47.8912C24.343 49.9332 27.1125 51.0804 30.0003 51.0804C27.8468 51.0791 25.7412 51.7165 23.9499 52.9119C22.1586 54.1073 20.762 55.807 19.9368 57.7961C19.1115 59.7852 18.8946 61.9744 19.3134 64.0868C19.7323 66.1992 20.7682 68.1399 22.2901 69.6636C23.812 71.1873 25.7515 72.2254 27.8634 72.6468C29.9753 73.0682 32.1648 72.8538 34.1549 72.0309C36.145 71.2079 37.8463 69.8133 39.0438 68.0234C40.2413 66.2335 40.8811 64.1287 40.8824 61.9752V29.3162H51.7772ZM51.7772 29.3162C49.625 29.3162 47.521 29.9544 45.7315 31.1502C43.9419 32.3459 42.5471 34.0455 41.7235 36.0339C40.8999 38.0223 40.6844 40.2104 41.1042 42.3213C41.5241 44.4322 42.5605 46.3712 44.0824 47.8931C45.6043 49.415 47.5433 50.4514 49.6542 50.8713C51.7651 51.2912 53.9532 51.0757 55.9416 50.252C57.9301 49.4284 59.6296 48.0336 60.8253 46.2441C62.0211 44.4545 62.6593 42.3506 62.6593 40.1983C62.659 37.3123 61.5124 34.5446 59.4716 32.5039C57.4309 30.4632 54.6632 29.3166 51.7772 29.3162Z" fill="#000000"/>
</svg>
