<svg width="81" height="80" viewBox="0 0 81 80" fill="none" xmlns="http://www.w3.org/2000/svg">
<g clip-path="url(#clip0_279_627)">
<path d="M38.1489 0.522263C37.4387 0.877357 35.9139 2.23506 33.2612 4.90869L29.3969 8.77292L33.9922 13.3682L38.5875 17.9635L40.1541 17.8382C42.1802 17.6711 43.705 18.1933 45.0418 19.551C46.3995 20.8878 46.9217 22.4126 46.7546 24.4387L46.6293 26.0053L50.9322 30.3082L55.2351 34.6319L56.9687 34.5066C58.4935 34.423 58.8277 34.4648 59.8303 34.9244C63.6737 36.6789 64.6763 41.2324 61.9191 44.3029C60.5196 45.8695 59.6215 46.2664 57.4909 46.2664C56.0706 46.2664 55.5484 46.1619 54.88 45.8069C53.8147 45.2429 52.3943 43.7181 51.9557 42.6737C51.5588 41.7755 51.4544 40.021 51.705 38.7468L51.8721 37.9113L47.6737 33.7338L43.4961 29.5562V40.6476V51.739L44.0392 52.0314C44.8956 52.4909 46.1489 54.0366 46.504 55.081C47.2977 57.3787 46.6711 59.7181 44.833 61.3891C42.8277 63.2272 40.5092 63.5405 38.128 62.3291C35.329 60.8878 34.1176 57.4831 35.4126 54.6633C35.9557 53.4518 37.1463 52.1776 38.0862 51.7599L38.692 51.4883V40.3969V29.2847L38.1071 29.0549C37.2298 28.6789 35.8512 27.1959 35.3499 26.0471C34.8486 24.94 34.7651 23.0392 35.1411 22.0575C35.3708 21.4309 35.329 21.3891 30.7129 16.7729L26.0549 12.115L13.8773 24.2716C4.64497 33.5249 1.59536 36.6998 1.1985 37.4727C0.425649 39.0183 0.467425 41.0862 1.28205 42.5066C1.6998 43.1959 7.84079 49.4831 19.7259 61.3473C33.5118 75.1123 37.752 79.2481 38.4831 79.5614C39.6319 80.0836 41.7207 80.1463 42.8277 79.6868C43.893 79.2272 79.7155 43.4883 80.2794 42.2977C80.8225 41.1489 80.8016 39.0392 80.2377 37.8069C79.9243 37.0758 75.7886 32.8356 62.0236 19.0497C50.1593 7.16457 43.8721 1.02357 43.1828 0.605812C41.7625 -0.208809 39.6946 -0.25058 38.1489 0.522263Z" fill="#F5F5F5"/>
</g>
</svg>
