<svg width="80" height="96" viewBox="0 0 80 96" fill="none" xmlns="http://www.w3.org/2000/svg">
<path d="M0 0.392555C0.0176991 1.85594 7.23894 82.1458 7.36283 82.2707C7.45133 82.3421 13.0088 83.9483 19.6991 85.8221L31.8938 89.2307H39.9469H48.0177L60.2478 85.8221C66.9734 83.9483 72.5487 82.3421 72.6195 82.2707C72.7434 82.1636 79.9823 1.58825 80 0.303329C80 0.0177917 77.9823 -6.10352e-05 40 -6.10352e-05H0V0.392555ZM65.0443 17.7033C64.9204 18.8098 64.2478 26.3944 64.2478 26.7156C64.2478 26.8941 60.3009 26.9476 45.1327 26.9476H26.0177V27.3403C26.0177 27.9649 26.7257 36.2633 26.8319 36.7095L26.9027 37.1199H45.1327H63.3628L63.2566 37.8695C63.2035 38.2978 62.5841 45.2935 61.8584 53.4135C61.1504 61.5513 60.531 68.2258 60.4956 68.2615C60.4779 68.2972 55.8407 69.5999 50.2124 71.1704L40 74.0258L29.6814 71.1347L19.3805 68.2615L18.7257 61.0338C18.3717 57.0541 18.0708 53.467 18.0708 53.0387L18.0531 52.2892H23.0973H28.1239L28.2124 52.8603C28.2655 53.1815 28.4425 54.9661 28.6018 56.8399C28.7611 58.6959 28.9204 60.2664 28.9381 60.2843C28.9735 60.3199 31.4513 61.0159 34.4602 61.8369L39.9115 63.3359L45.3805 61.8369C48.3894 61.0159 50.9027 60.2664 50.9558 60.1593C51.0266 60.0523 51.292 57.3753 51.5575 54.2166C51.8407 51.0399 52.0885 48.2381 52.1416 47.9526L52.2478 47.4707H34.9734C24.2832 47.4707 17.6814 47.3993 17.6106 47.3101C17.5398 47.1673 14.8673 17.8104 14.8673 17.0252C14.8673 16.811 18.8142 16.7753 40.0177 16.7753H65.1504L65.0443 17.7033Z" fill="#F5F5F5"/>
</svg>
