<svg width="81" height="80" viewBox="0 0 81 80" fill="none" xmlns="http://www.w3.org/2000/svg">
<rect x="4.67627" y="4.5" width="71" height="71" stroke="#F5F5F5" stroke-width="9"/>
<path d="M56.2475 36.9778C51.5541 38.1511 49.243 41.1734 49.243 46.1156C49.243 50.6311 51.6963 53.4045 58.2386 56.2134C63.7497 58.5956 65.0297 60.48 62.8252 62.9689C60.7986 65.2445 56.1408 64.64 53.723 61.7956C53.0475 61.0134 52.3719 60.4445 52.1941 60.48C52.0519 60.5511 50.843 61.2267 49.5275 61.9734C47.1097 63.36 47.1097 63.36 47.6075 64.32C48.3541 65.7067 51.1986 68.2311 52.9408 68.9778C55.2163 70.0089 59.0563 70.5067 61.5808 70.08C64.3186 69.6534 65.883 68.9778 67.5186 67.5556C69.6163 65.7067 70.363 63.9289 70.363 60.8C70.363 58.5245 70.2208 57.8489 69.3319 56.2489C68.0519 53.8667 66.1675 52.48 60.9052 50.0267C58.5941 48.9245 56.5675 47.7156 56.2119 47.2534C54.7186 45.0845 56.2119 42.6667 59.0563 42.6667C60.4786 42.6667 60.8697 42.8445 62.043 44.0178L63.3941 45.3689L65.9186 43.7334C67.3052 42.8445 68.443 41.9911 68.443 41.8489C68.443 41.6711 67.5897 40.7111 66.5941 39.7156C64.5319 37.6534 62.8963 36.9778 59.5541 36.7645C58.4875 36.6934 56.9941 36.8 56.2475 36.9778Z"/>
<path d="M36.7276 49.4933C36.6209 62.9689 36.5854 63.1467 34.772 63.9644C32.8165 64.8533 30.5765 64.0711 29.332 62.08L28.5854 60.8356L25.9543 62.4356C24.4965 63.3244 23.2876 64.1778 23.2876 64.32C23.2876 64.4978 23.7498 65.2444 24.3187 66.0267C26.3809 68.9067 29.1187 70.1156 33.4565 70.1511C35.9098 70.1867 36.6209 70.0444 38.3276 69.1911C39.4654 68.6578 40.7809 67.6622 41.2787 67.0222C43.0565 64.64 43.1987 63.5022 43.1987 49.7067V36.9778H40.0343H36.8343L36.7276 49.4933Z"/>
</svg>
