<svg width="73" height="76" viewBox="0 0 73 76" fill="none" xmlns="http://www.w3.org/2000/svg">
<path d="M32.754 0.8703C28.7691 1.33891 26.3004 1.92467 22.6071 3.29146C19.8274 4.32631 18.2723 4.61919 17.3199 4.28725C16.9894 4.1701 16.6978 4.13105 16.6395 4.20915C16.5034 4.44346 17.0477 5.82977 17.4754 6.27885C17.9224 6.76699 17.9808 6.98177 17.6697 6.98177C17.281 6.98177 15.8231 8.11425 13.7626 10.0668C12.6158 11.1212 11.4106 12.117 11.0801 12.2536C10.7691 12.3903 10.497 12.5465 10.497 12.6246C10.497 12.8199 12.0909 13.8157 12.3825 13.8157C12.7518 13.8157 12.7129 13.9133 11.9354 15.1434C11.0607 16.5493 10.0304 17.6231 9.27234 17.9356C8.7475 18.1699 8.72806 18.1894 9.05852 18.4432C9.2529 18.5799 9.69998 18.6971 10.0499 18.6971C10.3998 18.6971 10.6913 18.7166 10.6913 18.7556C10.6913 18.7752 10.1665 19.3609 9.52504 20.0248C6.99804 22.6998 4.84037 26.6244 3.11035 31.6815C1.24426 37.2072 0.602792 40.917 0.447284 46.9114C0.311215 52.9838 0.933245 57.0451 2.64383 61.243C4.10171 64.7967 5.83173 67.335 8.43649 69.7757C10.2831 71.5134 12.3242 72.8216 14.9678 73.9737C16.7561 74.7547 20.5272 75.8481 20.741 75.6528C20.7993 75.5943 20.4106 75.3209 19.8857 75.0671C13.6265 71.8454 8.72806 64.621 7.01748 56.0883C6.12331 51.5975 6.00668 45.6031 6.70646 41.0537C7.7367 34.376 10.4775 27.2102 13.7432 22.6021C15.0456 20.7668 17.6503 17.9551 19.1276 16.7836C19.8857 16.1783 19.8857 16.1587 19.5358 15.7682C19.2637 15.4558 19.2054 15.202 19.3026 14.46C19.3803 13.9328 19.4775 13.3275 19.5553 13.0932C19.6913 12.5856 19.0499 11.8631 18.4278 11.8631C17.6503 11.8631 16.3868 12.6246 16.1147 13.2494C15.9203 13.7571 15.9397 14.0109 16.1924 14.8701C16.6006 16.1587 16.6006 16.1587 16.1535 16.1587C15.2399 16.1587 13.9959 14.4405 13.9959 13.1518C13.9959 12.1365 14.6373 11.4922 16.0369 11.1602C18.5639 10.5745 20.8577 10.965 22.1989 12.2341C22.8793 12.8589 22.9959 13.1128 23.0931 13.9719C23.1514 14.7139 23.0931 15.1044 22.8598 15.4753C22.5488 15.944 22.5682 15.9635 22.9959 16.0611C23.5207 16.1978 25.3868 15.9244 28.2054 15.2801C30.7907 14.6943 32.4041 14.5186 33.4732 14.6748C34.8339 14.8896 34.9116 15.0263 34.1341 15.8073C33.3566 16.5883 33.2399 17.3498 33.7259 18.287C33.9592 18.7556 34.5812 19.2438 34.6784 19.0485C34.6978 19.0095 34.8339 18.7556 34.97 18.4627C35.8253 16.764 40.5682 17.0569 41.4818 18.8728C42.4538 20.7668 40.7237 25.4333 37.8663 28.5574C37.1276 29.3775 36.9721 29.6313 37.2443 29.6313C38.7216 29.6118 42.7259 26.6634 49.3739 20.7472C53.7086 16.8812 53.4365 17.0569 54.8166 17.1936C55.4581 17.2717 56.7993 17.6427 57.8101 18.0137C58.8209 18.3846 59.6762 18.6971 59.7151 18.6971C59.8123 18.6971 60.1039 16.9788 60.3177 15.3777C60.376 14.9286 60.4149 14.9286 60.7065 15.612C61.0952 16.4711 61.1147 17.2131 60.8231 18.4237C60.5898 19.3023 60.5898 19.3219 61.3674 20.1224C61.795 20.5715 62.3976 21.2939 62.6892 21.7235L63.214 22.5045L63.1168 20.4543C63.0196 18.3261 62.7086 16.8812 61.9311 14.9482C61.0758 12.8394 60.1816 11.5898 57.7907 9.16862C56.4689 7.84089 55.3998 6.61079 55.3998 6.43506C55.3998 5.88834 54.5056 4.1701 53.9613 3.66244C53.4559 3.21336 52.8922 3.11573 51.5121 3.2524C51.2399 3.29146 50.4624 3.07668 49.7821 2.7838C46.5553 1.41702 42.1622 0.714096 36.9721 0.753143C34.97 0.772675 33.0844 0.831245 32.754 0.8703Z" fill="white"/>
<path d="M36.9721 18.2676C36.7777 18.3847 37.011 18.4824 37.6913 18.5409C38.7799 18.6581 39.4602 19.0291 39.0326 19.3024C38.6244 19.5758 37.4581 19.4977 36.8555 19.1853C36.5445 19.0096 36.2529 18.9315 36.1751 18.99C36.1168 19.0486 36.1946 19.4782 36.3501 19.9273C36.8749 21.4307 38.4883 22.036 39.8101 21.2355C41.093 20.4544 41.1319 19.1853 39.9073 18.58C39.0715 18.1895 37.3609 18.0138 36.9721 18.2676Z" fill="white"/>
<path d="M54.0781 19.3804C53.7282 19.6733 52.9896 20.6105 52.4064 21.4891C50.2682 24.7694 50.0738 25.609 51.2595 26.9172C51.9982 27.7373 52.8146 28.2645 53.3589 28.2645C53.8449 28.2645 54.8168 27.1906 54.8168 26.6439C54.8168 25.98 54.2919 25.5895 53.1062 25.3356C52.5425 25.199 52.0954 25.0232 52.0954 24.9256C52.0954 24.6132 53.0284 24.5156 53.7865 24.7499C55.6721 25.3552 55.9831 26.6829 54.6224 28.4011C54.4086 28.6745 54.2336 29.026 54.2336 29.1626C54.2336 29.9437 58.1602 30.0218 59.6181 29.2798C60.6289 28.7526 60.8038 28.2254 60.3762 26.9563C59.9291 25.6285 59.968 24.7108 60.5122 24.2032C61.3092 23.4417 61.3287 23.5393 60.901 25.57C60.8233 26.0386 60.8621 26.1167 61.212 26.1167C61.6591 26.1167 62.0673 25.5114 61.8924 25.0623C61.8341 24.9061 61.9312 24.5156 62.1256 24.2032C62.3395 23.8322 62.4172 23.4417 62.32 23.1097C62.0673 22.1139 57.3827 19.2828 55.4777 18.9899C54.7973 18.8922 54.5835 18.9508 54.0781 19.3804Z" fill="white"/>
<path d="M56.7996 33.3413C54.9724 35.0595 51.6484 36.3482 48.3439 36.602C46.4584 36.7582 46.7305 36.934 49.2769 37.2464C52.5037 37.6369 55.3223 37.2464 57.3439 36.1529C58.2381 35.6648 59.4821 34.4737 59.4821 34.1028C59.4821 33.927 58.0826 32.365 57.9465 32.365C57.8882 32.3845 57.3633 32.8141 56.7996 33.3413Z" fill="white"/>
<path d="M61.4793 33.493C62.6511 31.4967 62.9811 28.1918 62.9461 24.7227C62.9348 22.7427 63.0861 23.0187 63.4965 25.6668C64.0125 29.0227 63.9109 31.9903 63.2241 34.159C62.917 35.1184 62.3932 36.6437 62.1131 36.662C61.9805 36.6707 60.4154 35.119 60.406 34.9767C60.4168 34.9147 61.12 34.1088 61.4793 33.493Z" fill="white"/>
<path d="M61.7999 39.2175C61.9492 45.7597 61.4885 56.3289 57.676 66.4507C56.7999 68.7969 53.2396 73.4225 53.2396 73.4225C53.6218 73.667 58.6673 68.3696 60.8449 63.9155C65.481 54.4143 64.6477 45.5352 64.6483 38.5634C64.6483 35.3944 63.2774 33.0814 62.7467 32.8591C62.4953 32.7538 61.651 34.9838 61.4791 35.3943C61.4333 35.582 61.758 37.2009 61.7999 39.2175Z" fill="white"/>
<path d="M58.821 36.0943C55.8275 38.535 52.2897 39.687 43.9312 40.9757C41.7541 41.3076 39.888 41.62 39.8102 41.6591C39.4992 41.8543 39.6742 40.3704 40.1018 38.8279C40.3545 37.9688 40.5294 37.2463 40.4711 37.2463C40.1212 37.2463 38.158 39.0036 37.4776 39.9213C36.5057 41.21 36.4668 41.1319 36.5834 38.5741C36.6223 37.7345 36.5834 37.0511 36.5057 37.0511C36.2724 37.0511 35.3199 38.4569 34.8145 39.5503C34.5424 40.1166 34.2703 40.5657 34.1731 40.5657C34.0759 40.5657 33.7066 40.3509 33.3567 40.0775C32.9873 39.8042 31.6461 39.1208 30.3631 38.535C27.8945 37.4221 26.0284 36.3091 25.5618 35.6257C25.2897 35.2157 25.2703 35.2157 25.2703 35.5867C25.2703 36.27 25.8145 39.277 26.0284 39.8627C26.1644 40.1751 26.2227 40.468 26.1644 40.5071C26.0089 40.6633 23.4625 39.9604 22.1018 39.3941C21.3243 39.0622 20.0024 38.3202 19.1472 37.754C18.2919 37.1682 17.5726 36.7191 17.5338 36.7387C17.5143 36.7777 17.767 37.4416 18.0975 38.2421C19.7497 42.2644 20.5467 46.1304 21.1882 53.2572C21.8297 60.3059 22.3934 63.059 23.8513 66.1831L24.551 67.6865L25.9117 66.2221C28.7692 63.1371 31.4906 61.3798 39.7325 57.1818C42.6288 55.7174 45.6612 54.0968 46.4582 53.5501C48.3048 52.3395 50.5402 50.1136 51.104 48.9226L51.5316 48.0049L52.6396 48.8444C53.2422 49.3131 54.4279 50.1917 55.2443 50.797C56.7994 51.9295 57.7519 53.0229 58.1601 54.1554C58.5489 55.2293 58.7627 54.9364 58.6655 53.4915C58.5878 52.4371 58.3545 51.6561 57.5964 49.9183C55.672 45.5056 55.672 45.5446 57.7908 41.21C59.4819 37.793 60.1428 36.1334 60.0262 35.5281C59.9873 35.2352 59.7929 35.3133 58.821 36.0943Z" fill="white"/>
</svg>
