<svg width="81" height="80" viewBox="0 0 81 80" fill="none" xmlns="http://www.w3.org/2000/svg">
<g clip-path="url(#clip0_279_558)">
<path d="M0.67627 40V80H40.6763H80.6763V40V0H40.6763H0.67627V40ZM75.6763 40V75H40.6763H5.67627V40V5H40.6763H75.6763V40Z" fill="#F5F5F5"/>
<path d="M20.2075 19.7031C18.3481 19.8437 15.7388 20.1406 15.3325 20.25C15.0669 20.3281 15.0513 21.4062 15.0513 40.1719V60H19.5825H24.1138V52.8437V45.7031L27.2856 45.6875C30.7856 45.6875 32.3325 45.4687 34.7231 44.6875C39.7544 43.0469 42.645 39.875 43.6606 34.9219C43.9731 33.4062 43.895 30.2969 43.5044 28.8281C42.0981 23.5156 38.1138 20.4844 31.4575 19.6875C29.9575 19.5156 22.6763 19.5156 20.2075 19.7031ZM30.5669 26.8281C33.3638 27.6562 34.7388 29.4375 34.7388 32.2656C34.7388 35.375 32.9731 37.5156 29.7231 38.3594C28.7075 38.6406 25.1294 38.7344 24.4419 38.5156C24.1138 38.4219 24.1138 38.3594 24.1138 32.5781V26.75L25.1763 26.6406C25.7544 26.5937 26.3638 26.5156 26.5356 26.4844C27.1606 26.375 29.77 26.5937 30.5669 26.8281Z" fill="#F5F5F5"/>
<path d="M53.4888 30.4062C48.9575 31.3906 45.9106 34.0625 45.1294 37.7656C44.2388 41.9531 46.2231 45.3125 50.8794 47.5C51.5825 47.8281 53.0356 48.4218 54.0981 48.8281C55.6138 49.4062 56.1763 49.7187 56.7075 50.2343C57.3481 50.8437 57.395 50.9375 57.395 51.6875C57.395 52.3593 57.3169 52.5781 56.9106 53.0468C55.5669 54.5625 51.4888 54.3437 47.27 52.5312L45.8325 51.9062L45.6919 52.4843C45.1294 54.5781 44.27 58.1406 44.27 58.3281C44.27 58.8125 47.1138 59.7656 49.9575 60.25C52.1138 60.6093 56.5981 60.4843 58.4575 60.0156C61.9106 59.1406 64.2856 57.4218 65.4575 54.9218C66.8325 52.0625 66.52 48.3906 64.7075 46C63.5513 44.4531 61.5669 43.2343 58.02 41.875C54.7231 40.6093 53.8013 39.9375 53.8013 38.7812C53.8013 36.0625 58.0669 35.75 63.2856 38.0625C63.4888 38.1562 63.4575 38.2968 64.3481 34.7968C64.7544 33.25 65.0356 31.9062 65.0044 31.7968C64.895 31.5156 62.1138 30.6718 60.4419 30.3906C58.6606 30.0937 54.8481 30.1093 53.4888 30.4062Z" fill="#F5F5F5"/>
</g>
</svg>
