<svg width="102" height="102" viewBox="0 0 102 102" fill="none" xmlns="http://www.w3.org/2000/svg">
<path d="M29.7999 43.3786H25.7805L23.5907 54.6337H27.1607C29.5162 54.6337 31.2758 54.1875 32.4392 53.2918C33.5835 52.412 34.3644 50.9171 34.7629 48.842C35.1581 46.8498 34.9764 45.4378 34.2497 44.609C33.5006 43.7962 32.0216 43.3786 29.7999 43.3786ZM51 24.174C22.8257 24.174 0 36.194 0 51C0 65.8059 22.8257 77.826 51 77.826C79.1743 77.826 102 65.8059 102 51C102 36.194 79.1743 24.174 51 24.174ZM37.1376 55.8481C36.0411 56.9096 34.6991 57.7065 33.252 58.1846C31.824 58.634 30.0007 58.8826 27.7918 58.8826H22.7587L21.3818 66.0226H15.5199L20.7506 39.1456H32.0057C35.394 39.1456 37.8675 40.0254 39.4262 41.8008C40.9721 43.5763 41.4534 46.0689 40.8191 49.2564C40.5896 50.5186 40.1402 51.7299 39.5282 52.8615C38.913 53.9356 38.1352 54.9365 37.1344 55.8481H37.1376ZM54.2544 58.8826L56.5622 46.9837C56.8268 45.6354 56.7279 44.711 56.2594 44.2074C55.8131 43.7261 54.8314 43.4775 53.3396 43.4775H48.7082L45.7215 58.8826H39.8947L45.1223 31.9897H50.9331L49.5401 39.1456H54.7198C57.9934 39.1456 60.231 39.7098 61.4614 40.8382C62.7077 41.9857 63.0711 43.8249 62.5929 46.3685L60.1481 58.8858L54.2544 58.8826ZM86.5247 49.2564C86.2952 50.5186 85.8617 51.7299 85.2337 52.8615C84.6345 53.9356 83.8408 54.9365 82.8591 55.8481C81.7466 56.8936 80.4206 57.7065 78.9576 58.1846C77.5296 58.634 75.7031 58.8826 73.4974 58.8826H68.4834L67.0905 66.0226H61.2287L66.4594 39.1456H77.7144C81.1028 39.1456 83.5762 40.0254 85.1349 41.8199C86.6809 43.5794 87.159 46.0689 86.5247 49.2564ZM75.5055 43.3786H71.502L69.3122 54.6337H72.8663C75.2378 54.6337 76.9973 54.1875 78.1448 53.2918C79.305 52.412 80.0859 50.9171 80.4876 48.842C80.8828 46.8498 80.7011 45.4378 79.9521 44.609C79.2253 43.7962 77.7304 43.3786 75.5055 43.3786Z" fill="#F5F5F5"/>
</svg>
