<svg width="81" height="80" viewBox="0 0 81 80" fill="none" xmlns="http://www.w3.org/2000/svg">
<g clip-path="url(#clip0_279_563)">
<path d="M0.67627 40V80H40.6763H80.6763V40V0H40.6763H0.67627V40ZM75.6763 40V75H40.6763H5.67627V40V5H40.6763H75.6763V40Z" fill="#F5F5F5"/>
<path d="M20.2075 19.7031C18.3481 19.8437 15.7388 20.1406 15.3325 20.25C15.0669 20.3281 15.0513 21.4062 15.0513 40.1719V60H19.5825H24.1138V52.8437V45.7031L27.2856 45.6875C30.7856 45.6875 32.3325 45.4687 34.7231 44.6875C39.7544 43.0469 42.645 39.875 43.6606 34.9219C43.9731 33.4062 43.895 30.2969 43.5044 28.8281C42.0981 23.5156 38.1138 20.4844 31.4575 19.6875C29.9575 19.5156 22.6763 19.5156 20.2075 19.7031ZM30.5669 26.8281C33.3638 27.6562 34.7388 29.4375 34.7388 32.2656C34.7388 35.375 32.9731 37.5156 29.7231 38.3594C28.7075 38.6406 25.1294 38.7344 24.4419 38.5156C24.1138 38.4219 24.1138 38.3594 24.1138 32.5781V26.75L25.1763 26.6406C25.7544 26.5937 26.3638 26.5156 26.5356 26.4844C27.1606 26.375 29.77 26.5937 30.5669 26.8281Z" fill="#F5F5F5"/>
<path d="M63.05 32.95C63.8167 32.95 64.5 33.05 65.1 33.25C65.7 33.4167 66 33.5167 66 33.55V41.9H62.8C60.7333 41.9 59.2333 42.4333 58.3 43.5C57.4 44.5667 56.95 46.15 56.95 48.25V60H47V33.6H55.15L55.8 37.6C56.4 36.0667 57.35 34.9167 58.65 34.15C59.95 33.35 61.4167 32.95 63.05 32.95Z" fill="#F5F5F5"/>
</g>
</svg>
