<svg width="58" height="58" viewBox="0 0 58 58" fill="none" xmlns="http://www.w3.org/2000/svg">
<g clip-path="url(#clip0_256_12)">
<path d="M29 18.125C23.0074 18.125 18.125 23.0074 18.125 29C18.125 34.9926 23.0074 39.875 29 39.875C34.9926 39.875 39.875 34.9926 39.875 29C39.875 23.0074 34.9926 18.125 29 18.125ZM56.9125 27.2441L46.1848 21.8859L49.9797 10.5125C50.4895 8.97188 49.0281 7.51055 47.4988 8.03164L36.1254 11.8266L30.7559 1.0875C30.0309 -0.3625 27.9691 -0.3625 27.2441 1.0875L21.8859 11.8152L10.5012 8.02031C8.96055 7.51055 7.49922 8.97187 8.02031 10.5012L11.8152 21.8746L1.0875 27.2441C-0.3625 27.9691 -0.3625 30.0309 1.0875 30.7559L11.8152 36.1141L8.02031 47.4988C7.51055 49.0395 8.97188 50.5008 10.5012 49.9797L21.8746 46.1848L27.2328 56.9125C27.9578 58.3625 30.0195 58.3625 30.7445 56.9125L36.1027 46.1848L47.4762 49.9797C49.0168 50.4895 50.4781 49.0281 49.957 47.4988L46.1621 36.1254L56.8899 30.7672C58.3625 30.0309 58.3625 27.9691 56.9125 27.2441ZM39.252 39.252C33.5992 44.9047 24.4008 44.9047 18.748 39.252C13.0953 33.5992 13.0953 24.4008 18.748 18.748C24.4008 13.0953 33.5992 13.0953 39.252 18.748C44.9047 24.4008 44.9047 33.5992 39.252 39.252Z" fill="black"/>
</g>
<defs>
<clipPath id="clip0_256_12">
<rect width="58" height="58" fill="white"/>
</clipPath>
</defs>
</svg>
