<svg width="81" height="81" viewBox="0 0 81 81" fill="none" xmlns="http://www.w3.org/2000/svg">
<path d="M37.7425 0.0759125C22.8704 1.23167 10.034 10.341 3.98792 24.0277C1.73964 29.1526 0.67627 34.2623 0.67627 40.0715C0.67627 44.7859 1.23834 48.314 2.69668 52.6937C4.74748 58.8832 7.72493 63.6887 12.4797 68.4335C17.113 73.0565 21.959 76.0676 28.0658 78.0902C32.4408 79.5501 35.9651 80.1128 40.6744 80.1128C48.3762 80.1128 55.3641 78.1206 61.8659 74.0906C66.5296 71.186 71.5426 66.2284 74.4593 61.6053C77.5887 56.6781 79.6243 51.0057 80.4142 45.09C80.7636 42.5351 80.7636 37.6079 80.4142 35.0531C77.9837 16.8497 63.8256 2.63077 45.8393 0.319229C43.5759 0.0302887 39.8237 -0.0913696 37.7425 0.0759125ZM45.4596 2.14413C53.7387 3.16302 61.5317 6.9801 67.5018 12.9262C70.8438 16.2567 72.9098 19.1309 74.9302 23.2673C77.2849 28.0729 78.4546 32.407 78.804 37.7296C79.3205 45.3333 77.3608 53.2564 73.3048 59.9629C70.5856 64.4795 65.9067 69.2851 61.4102 72.1897C50.2296 79.4132 36.2082 80.3257 24.2984 74.5925C20.0449 72.5395 17.0219 70.3952 13.695 67.08C10.4441 63.8104 8.25662 60.7385 6.25139 56.5716C3.71448 51.3099 2.4992 46.0025 2.4992 40.0715C2.4992 29.8065 6.4185 20.3627 13.7102 13.0783C22.1565 4.62294 33.5801 0.684212 45.4596 2.14413Z" fill="#F5F5F5"/>
<path d="M39.0794 6.11321C27.7165 6.66068 17.3866 12.8501 11.538 22.5829C10.7177 23.9364 9.38086 26.5368 9.38086 26.7649C9.38086 26.8106 12.966 26.7954 17.3562 26.7345L25.3315 26.6433V27.5101V28.3921L24.5719 28.2857C22.5515 28.012 21.078 29.1829 21.078 31.0839C21.078 31.4336 23.0073 36.4673 26.7291 45.8199C31.7877 58.5333 32.3953 59.9781 32.5624 59.6587C32.6536 59.461 34.3854 55.3702 36.4058 50.5342L40.0668 41.7747L37.9249 36.3152C36.7552 33.3194 35.6158 30.6429 35.4184 30.3843C34.6132 29.3046 32.927 28.4682 31.0129 28.1945L29.8888 28.0272V27.358V26.6889H41.829H53.754L53.6477 27.4037C53.6021 27.8143 53.5261 28.164 53.4957 28.1945C53.4502 28.2401 52.6906 28.3161 51.7791 28.3769C50.017 28.4834 49.7739 28.5746 49.1967 29.1829C48.908 29.4871 48.8017 29.7912 48.7561 30.4604C48.6954 31.312 48.8777 31.8442 53.8299 45.1356C56.6707 52.7241 59.0253 58.9287 59.0861 58.9287C59.1468 58.9287 59.238 58.7767 59.2987 58.579C59.3443 58.3965 60.3165 55.8872 61.4407 52.9978C64.3725 45.4701 65.0258 42.672 65.0106 37.5623C64.9954 34.5816 64.6156 31.9659 63.9776 30.4452C62.4281 26.7649 62.0179 25.1378 62.1243 23.0391C62.1698 21.9138 62.261 21.5488 62.6863 20.6972C63.4307 19.1612 64.6308 18.3096 66.2714 18.1423C66.7272 18.0967 66.712 18.0815 65.2081 16.5151C60.1494 11.2685 53.5413 7.77082 46.3559 6.53902C45.0647 6.32612 40.9479 5.97635 40.2947 6.03717C40.1276 6.05238 39.5807 6.0828 39.0794 6.11321Z" fill="#F5F5F5"/>
<path d="M73.1529 30.126C72.9554 30.4302 57.977 69.4677 58.0378 69.5134C58.0682 69.5438 58.6606 69.1788 59.3746 68.7226C67.8512 63.0806 73.3048 54.2603 74.5505 44.1777C74.7632 42.3528 74.7328 37.6993 74.4897 35.8136C74.1403 33.274 73.3352 29.8219 73.1529 30.126Z" fill="#F5F5F5"/>
<path d="M7.89215 31.0229C7.07183 34.0036 6.64648 37.1059 6.64648 40.193C6.64648 47.9945 9.3505 55.6286 14.2876 61.742C15.6852 63.4605 18.4499 66.1218 20.2425 67.46C21.7768 68.6006 23.9339 69.9693 24.0251 69.8628C24.0555 69.8324 20.5007 61.0121 16.1257 50.2604C11.7507 39.5087 8.1504 30.6428 8.12002 30.5667C8.07445 30.4755 7.9833 30.6884 7.89215 31.0229Z" fill="#F5F5F5"/>
<path d="M35.7826 58.746C32.638 66.076 30.01 72.1894 29.9644 72.3263C29.8884 72.524 30.1467 72.6457 31.286 72.965C36.6333 74.4858 42.0261 74.6987 47.4341 73.6037C49.4697 73.1931 51.9155 72.4784 51.9155 72.2959C51.9155 72.1134 41.7223 45.6372 41.6008 45.5156C41.54 45.4547 38.9271 51.4008 35.7826 58.746Z" fill="#F5F5F5"/>
</svg>
